<svg width="79" height="23" viewBox="0 0 79 23" fill="none" xmlns="http://www.w3.org/2000/svg">
<path d="M21.3037 6.92771V22.7083H16.8454V6.92771H21.3037ZM16.5748 2.84401C16.5748 2.18284 16.8027 1.6432 17.2585 1.22511C17.7143 0.797294 18.3125 0.583386 19.0532 0.583386C19.7939 0.583386 20.3921 0.797294 20.8479 1.22511C21.3132 1.6432 21.5459 2.18284 21.5459 2.84401C21.5459 3.49546 21.3132 4.03509 20.8479 4.4629C20.3921 4.881 19.7939 5.09004 19.0532 5.09004C18.3125 5.09004 17.7143 4.881 17.2585 4.4629C16.8027 4.03509 16.5748 3.49546 16.5748 2.84401Z" fill="#0F4BFF"/>
<path d="M27.1169 10.2968V22.7083H22.6586V6.92771H26.8463L27.1169 10.2968ZM26.5329 14.2638L25.4219 14.293C25.4219 13.1067 25.5644 12.0421 25.8492 11.0989C26.1341 10.1558 26.5377 9.35363 27.06 8.69245C27.5917 8.02156 28.2232 7.5111 28.9544 7.16107C29.6951 6.81103 30.5117 6.63602 31.4044 6.63602C32.126 6.63602 32.786 6.74297 33.3843 6.95688C33.9825 7.17079 34.4953 7.51596 34.9226 7.99239C35.3594 8.4591 35.6918 9.08138 35.9197 9.85923C36.1476 10.6274 36.2615 11.5754 36.2615 12.7032V22.7083H31.7889V12.6886C31.7889 12.0275 31.6987 11.517 31.5183 11.1573C31.3379 10.7975 31.072 10.5447 30.7207 10.3989C30.3788 10.253 29.961 10.1801 29.4672 10.1801C28.9449 10.1801 28.4986 10.287 28.1283 10.501C27.7579 10.7051 27.4541 10.992 27.2167 11.3614C26.9793 11.7309 26.8036 12.1636 26.6896 12.6595C26.5852 13.1554 26.5329 13.6901 26.5329 14.2638Z" fill="#0F4BFF"/>
<path d="M42.9579 22.7083H38.4853V5.58592C38.4853 4.37053 38.7179 3.34961 39.1832 2.52315C39.658 1.69668 40.3275 1.06954 41.1916 0.641725C42.0557 0.213908 43.0766 0 44.254 0C44.6624 0 45.0422 0.0291693 45.3936 0.0875079C45.7544 0.136123 46.1058 0.204185 46.4476 0.291693V3.68992C46.2672 3.6413 46.082 3.60727 45.8921 3.58783C45.7022 3.56838 45.4743 3.55866 45.2084 3.55866C44.7336 3.55866 44.3253 3.63644 43.9834 3.79201C43.6511 3.93786 43.3947 4.16635 43.2142 4.47749C43.0433 4.77891 42.9579 5.14838 42.9579 5.58592V22.7083ZM46.006 6.92771V10.1217H36.2347V6.92771H46.006Z" fill="#0F4BFF"/>
<path d="M55.2235 18.9017V6.92771H59.6961V22.7083H55.5084L55.2235 18.9017ZM55.6936 15.6785L56.9186 15.6493C56.9186 16.7092 56.7951 17.6863 56.5482 18.5808C56.3108 19.4754 55.95 20.2532 55.4657 20.9144C54.9909 21.5756 54.3974 22.0909 53.6852 22.4604C52.9825 22.8201 52.1611 23 51.221 23C50.4613 23 49.7634 22.893 49.1272 22.6791C48.5004 22.4555 47.9592 22.1103 47.5034 21.6436C47.0476 21.1672 46.6962 20.5595 46.4493 19.8205C46.2024 19.0719 46.079 18.1773 46.079 17.137V6.92771H50.5231V17.1661C50.5231 17.5745 50.5705 17.9245 50.6655 18.2162C50.77 18.4982 50.9076 18.7316 51.0786 18.9163C51.259 19.101 51.4774 19.2372 51.7338 19.3247C51.9997 19.4122 52.2893 19.4559 52.6027 19.4559C53.3908 19.4559 54.0081 19.2906 54.4544 18.9601C54.9102 18.6197 55.2283 18.1676 55.4087 17.6037C55.5986 17.03 55.6936 16.3883 55.6936 15.6785Z" fill="#0F4BFF"/>
<path d="M69.0418 18.3183C69.0418 18.0266 68.9516 17.769 68.7712 17.5453C68.6003 17.3217 68.2869 17.1175 67.8311 16.9328C67.3848 16.748 66.7533 16.5633 65.9367 16.3786C65.1675 16.2133 64.4505 15.9994 63.7858 15.7368C63.1211 15.4646 62.5419 15.1389 62.0481 14.7597C61.5543 14.3707 61.1697 13.9138 60.8943 13.3887C60.6189 12.8539 60.4812 12.2462 60.4812 11.5656C60.4812 10.9045 60.6189 10.2773 60.8943 9.68421C61.1792 9.0911 61.5875 8.56605 62.1193 8.10907C62.6606 7.65208 63.3158 7.29233 64.0849 7.0298C64.8636 6.76728 65.7467 6.63602 66.7343 6.63602C68.0922 6.63602 69.265 6.85479 70.2525 7.29233C71.2401 7.72014 71.9998 8.32298 72.5316 9.10082C73.0633 9.86895 73.3292 10.7489 73.3292 11.7406H68.8851C68.8851 11.3323 68.8092 10.9774 68.6572 10.676C68.5053 10.3746 68.2726 10.1412 67.9593 9.9759C67.6459 9.80089 67.2328 9.71338 66.7201 9.71338C66.3212 9.71338 65.9699 9.7863 65.666 9.93215C65.3716 10.0683 65.139 10.2579 64.9681 10.501C64.8066 10.744 64.7259 11.026 64.7259 11.3469C64.7259 11.5705 64.7734 11.7747 64.8684 11.9594C64.9728 12.1344 65.1295 12.2997 65.3384 12.4553C65.5568 12.6011 65.8369 12.7324 66.1788 12.8491C66.5301 12.9658 66.9575 13.0776 67.4607 13.1845C68.5338 13.3887 69.5119 13.6755 70.395 14.045C71.2876 14.4145 71.9998 14.925 72.5316 15.5764C73.0728 16.2279 73.3435 17.0884 73.3435 18.1579C73.3435 18.858 73.1868 19.4997 72.8734 20.0831C72.5695 20.6665 72.128 21.1769 71.5487 21.6145C70.9695 22.052 70.2763 22.3923 69.4691 22.6354C68.662 22.8785 67.7504 23 66.7343 23C65.2814 23 64.0517 22.7326 63.0451 22.1978C62.0386 21.6631 61.2789 20.9922 60.7661 20.1852C60.2628 19.3684 60.0112 18.5322 60.0112 17.6766H64.1847C64.2036 18.2016 64.3318 18.6295 64.5692 18.9601C64.8161 19.2906 65.1342 19.5337 65.5236 19.6893C65.9129 19.8351 66.3497 19.9081 66.834 19.9081C67.3183 19.9081 67.7219 19.84 68.0447 19.7039C68.3676 19.5677 68.6145 19.383 68.7854 19.1497C68.9564 18.9066 69.0418 18.6295 69.0418 18.3183Z" fill="#0F4BFF"/>
<path d="M78.7579 6.92771V22.7083H74.2995V6.92771H78.7579ZM74.0289 2.84401C74.0289 2.18284 74.2568 1.6432 74.7126 1.22511C75.1684 0.797294 75.7666 0.583386 76.5073 0.583386C77.248 0.583386 77.8462 0.797294 78.302 1.22511C78.7673 1.6432 79 2.18284 79 2.84401C79 3.49546 78.7673 4.03509 78.302 4.4629C77.8462 4.881 77.248 5.09004 76.5073 5.09004C75.7666 5.09004 75.1684 4.881 74.7126 4.4629C74.2568 4.03509 74.0289 3.49546 74.0289 2.84401Z" fill="#0F4BFF"/>
<path d="M0 15.0531C0 13.7822 1.00623 12.7519 2.24749 12.7519H7.47633C8.71759 12.7519 9.72382 13.7822 9.72382 15.0531C9.72382 16.3241 8.71759 17.3544 7.47633 17.3544H2.24749C1.00623 17.3544 0 16.3241 0 15.0531Z" fill="#0F4BFF"/>
<path d="M4.21977 9.41738C4.21977 8.14643 5.22601 7.11612 6.46726 7.11612H11.6961C12.9374 7.11612 13.9436 8.14643 13.9436 9.41738C13.9436 10.6883 12.9374 11.7186 11.6961 11.7186H6.46726C5.22601 11.7186 4.21977 10.6883 4.21977 9.41738Z" fill="#0F4BFF"/>
<path d="M11.4668 15.0531C11.4668 13.7822 12.473 12.7519 13.7143 12.7519H18.9431C20.1844 12.7519 21.1906 13.7822 21.1906 15.0531C21.1906 16.3241 20.1844 17.3544 18.9431 17.3544H13.7143C12.473 17.3544 11.4668 16.3241 11.4668 15.0531Z" fill="#0F4BFF"/>
<path d="M4.21977 20.407C4.21977 19.1361 5.22601 18.1058 6.46726 18.1058H11.6961C12.9374 18.1058 13.9436 19.1361 13.9436 20.407C13.9436 21.678 12.9374 22.7083 11.6961 22.7083H6.46726C5.22601 22.7083 4.21977 21.678 4.21977 20.407Z" fill="#0F4BFF"/>
</svg>