<svg width="141" height="39" viewBox="0 0 141 39" fill="none" xmlns="http://www.w3.org/2000/svg">
<path d="M38.0231 11.747V38.5054H30.0658V11.747H38.0231ZM29.5828 4.82245C29.5828 3.70133 29.9896 2.7863 30.8031 2.07736C31.6166 1.35193 32.6844 0.98922 34.0064 0.98922C35.3283 0.98922 36.3961 1.35193 37.2096 2.07736C38.0401 2.7863 38.4553 3.70133 38.4553 4.82245C38.4553 5.92708 38.0401 6.8421 37.2096 7.56753C36.3961 8.27647 35.3283 8.63095 34.0064 8.63095C32.6844 8.63095 31.6166 8.27647 30.8031 7.56753C29.9896 6.8421 29.5828 5.92708 29.5828 4.82245Z" fill="white"/>
<path d="M48.3986 17.4597V38.5054H40.4413V11.747H47.9156L48.3986 17.4597ZM47.3563 24.1864L45.3733 24.2359C45.3733 22.2245 45.6275 20.4191 46.136 18.8199C46.6444 17.2207 47.3647 15.8605 48.2969 14.7394C49.246 13.6018 50.3731 12.7362 51.6781 12.1427C53.0001 11.5491 54.4577 11.2524 56.0508 11.2524C57.3389 11.2524 58.5168 11.4337 59.5846 11.7964C60.6523 12.1592 61.5675 12.7445 62.3302 13.5523C63.1098 14.3437 63.703 15.3989 64.1098 16.7178C64.5165 18.0203 64.7199 19.6278 64.7199 21.5403V38.5054H56.7372V21.5155C56.7372 20.3944 56.5762 19.5289 56.2542 18.9188C55.9322 18.3088 55.4576 17.8802 54.8305 17.6328C54.2204 17.3855 53.4747 17.2619 52.5933 17.2619C51.6612 17.2619 50.8646 17.4432 50.2036 17.806C49.5426 18.1522 49.0003 18.6386 48.5766 19.2651C48.1529 19.8916 47.8393 20.6252 47.6359 21.4661C47.4495 22.3069 47.3563 23.2137 47.3563 24.1864Z" fill="white"/>
<path d="M76.6716 38.5054H68.6889V9.47178C68.6889 7.41091 69.1041 5.67977 69.9346 4.27838C70.782 2.87698 71.9769 1.81357 73.5192 1.08814C75.0615 0.362714 76.8835 0 78.9851 0C79.7139 0 80.3918 0.049461 81.0189 0.148383C81.6629 0.230818 82.29 0.346227 82.9002 0.49461V6.25682C82.5781 6.17438 82.2476 6.11668 81.9087 6.0837C81.5697 6.05073 81.1629 6.03424 80.6884 6.03424C79.841 6.03424 79.1122 6.16614 78.502 6.42993C77.9088 6.67724 77.4512 7.06468 77.1292 7.59226C76.8242 8.10336 76.6716 8.72987 76.6716 9.47178V38.5054ZM82.1121 11.747V17.163H64.6721V11.747H82.1121Z" fill="white"/>
<path d="M98.5635 32.0507V11.747H106.546V38.5054H99.072L98.5635 32.0507ZM99.4025 26.5853L101.589 26.5358C101.589 28.3329 101.368 29.9899 100.928 31.5067C100.504 33.0235 99.8601 34.3424 98.9957 35.4635C98.1483 36.5847 97.089 37.4585 95.8179 38.085C94.5637 38.695 93.0977 39 91.4198 39C90.0639 39 88.8182 38.8186 87.6827 38.4559C86.5641 38.0767 85.598 37.4914 84.7845 36.7001C83.971 35.8922 83.3439 34.8618 82.9032 33.6088C82.4625 32.3393 82.2422 30.8224 82.2422 29.0583V11.747H90.1741V29.1078C90.1741 29.8003 90.2588 30.3938 90.4283 30.8884C90.6147 31.3665 90.8605 31.7622 91.1656 32.0755C91.4876 32.3887 91.8774 32.6195 92.335 32.7679C92.8095 32.9163 93.3265 32.9905 93.8858 32.9905C95.2925 32.9905 96.3941 32.7102 97.1907 32.1497C98.0042 31.5726 98.572 30.806 98.894 29.8497C99.233 28.877 99.4025 27.7888 99.4025 26.5853Z" fill="white"/>
<path d="M123.227 31.0615C123.227 30.5669 123.066 30.13 122.743 29.7508C122.438 29.3716 121.879 29.0254 121.066 28.7121C120.269 28.3989 119.142 28.0856 117.684 27.7724C116.312 27.4921 115.032 27.1294 113.846 26.6842C112.659 26.2226 111.625 25.6703 110.744 25.0273C109.863 24.3678 109.176 23.5929 108.685 22.7026C108.193 21.7958 107.948 20.7654 107.948 19.6113C107.948 18.4902 108.193 17.4268 108.685 16.4211C109.193 15.4153 109.922 14.525 110.871 13.7502C111.837 12.9753 113.007 12.3653 114.379 11.9201C115.769 11.475 117.345 11.2524 119.108 11.2524C121.532 11.2524 123.625 11.6233 125.387 12.3653C127.15 13.0907 128.506 14.1129 129.455 15.4318C130.404 16.7343 130.879 18.2264 130.879 19.9081H122.947C122.947 19.2156 122.811 18.6138 122.54 18.1027C122.269 17.5916 121.854 17.1959 121.294 16.9157C120.735 16.6189 119.998 16.4705 119.083 16.4705C118.371 16.4705 117.744 16.5942 117.201 16.8415C116.676 17.0723 116.261 17.3938 115.956 17.806C115.668 18.2181 115.523 18.6963 115.523 19.2403C115.523 19.6195 115.608 19.9658 115.778 20.279C115.964 20.5758 116.244 20.8561 116.617 21.1199C117.006 21.3672 117.506 21.5897 118.117 21.7876C118.744 21.9854 119.506 22.175 120.405 22.3564C122.32 22.7026 124.065 23.189 125.642 23.8155C127.235 24.442 128.506 25.3075 129.455 26.4122C130.421 27.5168 130.904 28.9759 130.904 30.7895C130.904 31.9765 130.625 33.0647 130.065 34.0539C129.523 35.0431 128.735 35.9087 127.701 36.6506C126.667 37.3925 125.43 37.9696 123.989 38.3817C122.549 38.7939 120.922 39 119.108 39C116.515 39 114.32 38.5466 112.524 37.6398C110.727 36.733 109.371 35.5954 108.456 34.227C107.558 32.8421 107.109 31.4242 107.109 29.9734H114.557C114.591 30.8637 114.82 31.5891 115.244 32.1497C115.684 32.7102 116.252 33.1224 116.947 33.3862C117.642 33.6335 118.422 33.7571 119.286 33.7571C120.15 33.7571 120.871 33.6417 121.447 33.4109C122.023 33.1801 122.464 32.8668 122.769 32.4711C123.074 32.059 123.227 31.5891 123.227 31.0615Z" fill="white"/>
<path d="M140.568 11.747V38.5054H132.611V11.747H140.568ZM132.128 4.82245C132.128 3.70133 132.534 2.7863 133.348 2.07736C134.161 1.35193 135.229 0.98922 136.551 0.98922C137.873 0.98922 138.941 1.35193 139.754 2.07736C140.585 2.7863 141 3.70133 141 4.82245C141 5.92708 140.585 6.8421 139.754 7.56753C138.941 8.27647 137.873 8.63095 136.551 8.63095C135.229 8.63095 134.161 8.27647 133.348 7.56753C132.534 6.8421 132.128 5.92708 132.128 4.82245Z" fill="white"/>
<path d="M0 25.5248C0 23.3697 1.79594 21.6227 4.01134 21.6227H13.3438C15.5592 21.6227 17.3552 23.3697 17.3552 25.5248C17.3552 27.6799 15.5592 29.427 13.3438 29.427H4.01134C1.79594 29.427 0 27.6799 0 25.5248Z" fill="white"/>
<path d="M7.53149 15.9686C7.53149 13.8135 9.32743 12.0665 11.5428 12.0665H20.8753C23.0907 12.0665 24.8867 13.8135 24.8867 15.9686C24.8867 18.1237 23.0907 19.8707 20.8753 19.8707H11.5428C9.32743 19.8707 7.53149 18.1237 7.53149 15.9686Z" fill="white"/>
<path d="M20.466 25.5248C20.466 23.3697 22.2619 21.6227 24.4773 21.6227H33.8098C36.0252 21.6227 37.8212 23.3697 37.8212 25.5248C37.8212 27.6799 36.0252 29.427 33.8098 29.427H24.4773C22.2619 29.427 20.466 27.6799 20.466 25.5248Z" fill="white"/>
<path d="M7.53149 34.6033C7.53149 32.4482 9.32743 30.7011 11.5428 30.7011H20.8753C23.0907 30.7011 24.8867 32.4482 24.8867 34.6033C24.8867 36.7583 23.0907 38.5054 20.8753 38.5054H11.5428C9.32743 38.5054 7.53149 36.7583 7.53149 34.6033Z" fill="white"/>
</svg>
