<svg width="697" height="778" viewBox="0 0 697 778" fill="none" xmlns="http://www.w3.org/2000/svg">
<path opacity="0.37" d="M493.093 646.902C484.656 640.947 485.028 632.014 486.269 628.292H479.445C476.467 628.292 474.482 629.946 473.862 630.773C470.884 632.758 464.35 632.427 461.455 632.014L427.956 630.773L432.299 661.17L434.78 688.465C429.321 688.465 426.715 702.527 426.095 709.557C417.162 717.994 419.892 730.442 422.373 735.612C424.358 740.078 421.546 750.293 419.892 754.843C426.839 755.339 435.607 759.599 439.122 761.666C446.567 764.148 448.428 762.7 448.428 761.666C474.73 745.289 494.54 741.609 501.157 741.815C506.12 741.815 506.947 740.161 506.74 739.334C507.733 736.356 508.395 735.612 508.601 735.612L501.157 723.825C499.172 674.197 494.954 651.865 493.093 646.902Z" fill="#6989EC" stroke="#10CFF1"/>
<path opacity="0.08" d="M432.441 532.223C453.781 517.335 468.215 514.854 472.764 515.474V523.538L477.106 527.881L475.866 535.945L496.337 563.861L505.022 566.342C511.97 560.387 514.12 569.651 514.327 575.027H519.91L510.605 589.916H496.337L486.411 598.601C476.899 597.773 457.627 596.367 456.635 597.36C455.642 598.352 449.191 599.841 446.089 600.462L407.627 598.601L411.349 628.377C397.95 612 381.78 619.486 375.37 625.276C350.059 616.342 362.342 590.536 371.647 578.749C382.069 573.29 388.81 558.692 390.878 552.074C421.151 545.127 431.201 535.945 432.441 532.223Z" fill="#6989EC" stroke="#10CFF1"/>
<path opacity="0.08" d="M320.015 770.351C311.082 775.314 293.96 776.555 286.516 776.555L288.377 765.389C288.377 763.404 289.205 760.84 289.618 759.806C294.085 753.85 291.479 747.812 289.618 745.538L277.832 733.751H275.971L268.526 730.029C276.467 721.096 273.903 715.141 271.628 713.28V708.317L276.591 707.076L281.554 694.669L275.971 693.428V689.706H281.554L287.137 690.947V687.225C284.159 684.744 284.655 679.574 285.276 677.299L284.655 674.198V667.374C274.73 666.878 280.106 656.001 284.035 650.624C292.471 643.18 297.476 649.177 298.923 653.106L306.367 648.763L310.71 648.143C308.228 640.699 311.744 641.319 313.811 642.56V640.699H320.015V653.106C327.955 644.173 337.385 646.489 341.107 648.763C341.107 653.726 351.032 661.17 355.995 664.272C373.861 650.873 387.84 661.17 392.596 667.994L395.077 694.669C391.107 694.173 388.873 701.493 388.253 705.215L386.392 715.761C378.452 721.22 379.361 732.51 380.809 737.473C384.283 743.428 382.256 756.083 380.809 761.667C364.928 754.719 333.663 764.562 320.015 770.351Z" fill="#6989EC" stroke="#10CFF1"/>
<path opacity="0.08" d="M104.134 684.355L103.514 668.846C111.95 670.831 119.436 661.402 122.124 656.439C124.605 650.484 129.361 650.236 131.429 650.856H145.697C159.593 657.308 159.759 677.117 158.104 686.216C160.586 684.231 166.582 683.321 169.271 683.114L158.725 691.179V698.623L140.114 714.752L123.985 706.067C122 701.601 114.473 698.002 110.958 696.762C113.439 692.295 107.443 686.629 104.134 684.355Z" fill="#6989EC" stroke="#10CFF1"/>
<path opacity="0.08" d="M233.166 766.246L176.715 719.72L195.325 702.971V696.147L207.732 686.842C221.628 684.361 220.966 701.937 218.898 711.036C230.809 719.472 235.028 711.656 235.648 706.693L239.99 707.934L240.611 713.517C245.573 718.48 240.197 726.751 236.889 730.266L244.953 734.609L248.055 733.988L259.841 747.016C262.819 750.49 259.428 758.389 257.36 761.904L256.119 776.172C245.698 775.676 236.475 769.348 233.166 766.246Z" fill="#6989EC" stroke="#10CFF1"/>
<path opacity="0.08" d="M81.1809 604.098C76.7144 605.587 77.252 602.651 78.0792 600.997L77.459 600.376L94.2084 586.108H107.856L109.717 562.535L155.002 572.461C154.01 582.882 160.379 578.871 163.687 575.562C166.665 575.562 168.237 580.939 168.65 583.627L177.335 575.562L190.983 581.766C189.99 577.796 192.223 575.976 193.464 575.562C196.938 575.066 198.634 572.047 199.047 570.6H204.01L206.491 587.969L214.556 594.793L208.352 600.997L210.834 605.959L216.417 602.858L217.037 614.024L223.861 620.848C214.928 633.255 220.966 637.184 225.102 637.597V643.18L225.722 644.421V646.902C223.241 649.88 225.929 655.174 227.583 657.448V659.93L222.62 658.689H216.417V663.652L221.38 664.272L217.037 676.679L210.213 676.059H206.491C204.01 686.977 195.118 683.089 190.983 679.781C191.975 675.811 191.396 667.787 190.983 664.272C191.479 651.369 174.647 655.174 166.169 658.689C170.139 635.86 159.138 625.604 153.141 623.329H138.253C132.298 622.337 129.568 627.465 128.948 630.153C122.496 640.575 114.266 642.353 110.958 641.94C109.469 630.525 97.9305 621.468 92.3473 618.366C88.8734 615.885 88.4185 608.648 88.6252 605.339H84.9032L83.6625 600.997L81.1809 604.098Z" fill="#6989EC" stroke="#10CFF1"/>
<path opacity="0.08" d="M36.5164 563.776C30.5611 564.272 29.0723 560.674 29.0723 558.813C48.4271 560.302 59.0557 556.125 61.9507 553.85H92.3477L90.4867 576.803H77.4594L60.0896 591.071L53.2658 583.627L54.5065 572.461C52.5214 569.979 49.1302 573.081 47.6827 574.942L44.581 574.322L43.3403 571.84L37.7571 570.599L36.5164 563.776Z" fill="#6989EC" stroke="#10CFF1"/>
<path opacity="0.08" d="M38.377 520.042L40.8583 515.71L62.5705 514.768C68.5848 511.798 69.7813 511.566 72.4961 512.907L77.4589 514.148L83.6623 516.629L94.8286 518.804L87.3844 520.042C75.5978 515.71 79.0097 514.768 71.8757 514.148C66.2067 513.655 58.0745 518.289 53.4803 518.804L50.9743 520.042H38.377Z" fill="#6989EC" stroke="#10CFF1" stroke-width="0.1"/>
<path opacity="0.08" d="M43.9604 467.405C42.9678 461.946 46.4417 453.55 48.3028 450.035C48.7989 453.013 63.8115 452.103 71.2558 451.276C77.2112 448.298 85.7306 450.035 89.2459 451.276C94.2087 457.727 103.721 460.995 107.856 461.822L110.958 466.164C112.943 472.616 125.846 487.876 132.05 494.7C134.531 499.167 134.325 510.209 133.911 515.172C146.814 523.112 145.904 537.504 143.837 543.708C132.918 545.196 109.097 538.125 98.5511 534.402H67.5338C59.5933 538.373 51.4046 539.365 48.3028 539.365H34.035L35.896 522.616H55.1268L57.6082 519.514C62.0747 519.514 68.5677 516.619 71.2558 515.172C74.2335 517.157 83.6628 520.962 88.0052 522.616L98.5511 519.514L93.5884 515.172C86.6405 514.675 79.9407 513.311 77.4593 512.69C69.5189 506.239 63.8117 510.002 61.9506 512.69H39.6181C42.0995 509.216 31.9672 493.873 26.5908 486.636C34.035 484.651 41.2723 472.988 43.9604 467.405Z" fill="#6989EC" stroke="#10CFF1"/>
<path opacity="0.08" d="M253.638 251.121H282.174L220.14 203.974L218.279 226.927L154.383 222.585L146.939 276.555C120.14 266.629 117.575 302.196 119.643 321.22L45.8219 316.877L42.0998 321.22C41.1072 328.168 45.8219 331.145 48.3033 331.766C53.266 341.691 47.0626 353.685 43.3405 358.441L48.3033 365.885L47.0626 396.902L38.998 421.096H40.2387C40.2387 423.081 52.6457 421.923 58.8492 421.096C66.7896 417.622 76.2189 419.648 79.941 421.096C85.8963 429.533 94.0022 431.642 97.3107 431.642L101.653 435.984C104.135 444.917 115.508 458.317 120.884 463.9C127.336 462.907 133.911 447.771 136.393 440.327L142.596 442.808L146.939 453.974L153.142 457.076L163.068 449.632L257.36 453.974L262.323 434.123H253.638V251.121Z" fill="#6989EC" stroke="#10CFF1"/>
<path opacity="0.08" d="M184.159 163.651L100.412 158.068C95.9455 167.001 86.9712 177.506 83.0423 181.642C67.1614 185.612 59.4691 205.215 57.6081 214.52L24.1093 254.843C25.1019 260.302 14.5973 270.765 9.221 275.314C2.76938 278.292 0.742915 291.857 0.536133 298.267L9.221 290.823L83.0423 296.406V275.314C82.546 253.478 100.205 249.259 109.097 249.88L116.541 195.91L181.057 200.872L184.159 163.651Z" fill="#6989EC" stroke="#10CFF1"/>
<path opacity="0.08" d="M677.504 32.0198C667.578 17.6278 650.622 26.0232 643.385 32.0198L640.903 78.5459C633.459 77.5534 631.598 83.0951 631.598 85.9901C629.613 90.9529 624.981 91.3664 622.913 90.9529C623.327 87.2308 623.782 82.1439 622.293 91.5732C620.804 101.003 629.53 107.909 634.079 110.184V120.73L648.968 131.896L654.551 167.876L657.032 169.117C667.95 165.146 667.785 148.852 666.338 141.201L691.151 123.831C699.092 120.357 694.46 112.458 691.151 108.943C685.692 111.424 685.155 100.878 685.568 95.2953C683.087 89.34 679.158 94.4682 677.504 97.7767C668.571 100.258 666.338 93.0207 666.338 89.0918L685.568 73.5831C694.005 68.1241 689.084 58.0745 685.568 53.732C676.635 50.7544 678.951 45.0472 681.226 42.5658L691.151 32.0198L688.67 27.6774L677.504 32.0198Z" fill="#6989EC" stroke="#10CFF1"/>
<path opacity="0.08" d="M441.603 38.3413C434.159 51.2445 426.508 54.0567 423.613 53.8499L429.196 58.1924V66.8772C424.233 85.7358 430.437 98.7218 434.159 102.857V104.718L427.335 114.024H397.558C397.558 118.49 385.979 120.847 380.189 121.468V132.014L383.29 137.597L373.985 136.356L357.236 143.8C346.318 157.2 329.527 158.068 322.496 156.828V161.79H309.469L304.506 167.374L298.923 164.892L279.072 174.197L276.591 200.252L274.729 213.9L453.39 349.135C451.901 352.113 458.973 357.82 462.695 360.302C464.68 365.264 471.38 367.746 474.481 368.366C475.474 371.84 481.512 372.295 484.407 372.088C492.347 372.585 493.505 381.394 493.092 385.736C488.129 398.639 498.468 397.729 504.258 395.662C504.258 395.662 538.377 386.356 548.303 381.394L664.308 304.47C661.826 293.924 651.281 282.138 651.281 282.138C630.933 285.612 629.155 277.382 630.809 272.833C633.787 266.381 627.501 261.046 623.985 259.185C615.548 246.778 622.538 241.195 627.087 239.954L625.226 182.262C614.804 171.84 620.056 164.272 623.985 161.79L616.541 123.949L602.273 115.264V104.718L595.449 97.8946C590.983 94.4207 590.693 86.9352 591.107 83.6266C596.566 84.1229 598.758 80.9385 599.171 79.2842C600.66 73.8251 606.822 71.2197 609.717 70.5993L613.439 26.5546L595.449 19.1105L588.005 22.2122L576.839 19.1105L549.544 22.2122H533.414L491.851 26.5546C471.504 26.5546 460.627 36.4802 457.732 41.443L441.603 38.3413Z" fill="#6989EC" stroke="#10CFF1"/>
<path opacity="0.08" d="M401.901 29.1156L393.837 22.2918C383.415 18.3216 375.433 16.0883 372.745 15.468C368.196 15.6748 356.988 15.9643 348.551 15.468C340.115 14.9717 337.592 5.33566 337.385 0.579657C336.393 0.0833791 332.422 2.02714 330.561 3.06105C323.117 6.03872 313.812 21.2579 310.09 28.4953C311.082 35.4432 298.096 40.4887 291.479 42.1429C287.137 43.3836 253.638 63.2348 255.499 67.5772C256.988 71.0511 252.811 75.2282 250.536 76.8824C239.37 83.0859 236.268 101.903 236.889 109.761C236.889 129.612 205.665 148.636 189.122 155.667C189.122 155.667 168.857 160.216 165.549 163.111L249.916 168.694L253.638 143.88L273.489 135.195L278.452 135.815L282.795 130.853H295.822L296.442 126.51C319.395 126.51 328.287 118.446 330.561 113.483L347.311 106.039L356.616 107.279L353.514 102.317V91.1504C362.199 91.1504 372.538 85.7741 370.264 83.0859H401.901L407.484 73.7807C401.901 71.9196 401.074 60.5466 401.901 56.4109V29.1156Z" fill="#6989EC" stroke="#10CFF1"/>
<path opacity="0.08" d="M289.619 280.897H318.155L433.539 368.366C431.058 370.351 438.295 376.637 442.224 379.532C445.202 384.495 451.736 386.977 454.631 387.597C454.631 391.071 460.835 391.939 463.936 391.939C471.877 390.45 473.448 399.59 473.242 404.346C467.286 420.227 483.581 416.753 492.472 413.031L490.611 477.547L488.13 478.168V478.788H485.648L485.028 480.029L484.408 481.269H483.167V484.991H480.686V486.232L478.204 485.612L477.584 488.714L475.723 488.093L475.103 491.195H431.058L422.373 498.019C400.537 492.063 376.054 506.29 366.542 514.148C362.572 521.096 351.653 526.141 346.691 527.795L324.358 533.999C320.388 547.398 311.951 556.125 308.229 558.813C298.8 561.79 294.788 581.972 293.961 591.691C284.036 587.225 276.591 592.725 274.11 596.034V583.627L266.666 584.247V585.488C261.207 583.503 262.323 588.796 263.564 591.691H259.842L253.018 596.034C247.559 586.108 239.991 590.657 236.889 594.173L235.028 592.932L230.065 587.969V575.562L228.825 576.183L223.241 579.284L222.001 575.562L228.204 569.359L220.14 561.915L217.658 544.545L210.834 543.924C211.827 545.413 208.353 548.267 206.492 549.508C203.514 548.515 202.356 552.816 202.15 555.091L190.363 549.508L181.058 556.331C181.058 553.85 178.163 550.748 176.715 549.508C166.79 556.455 167.617 550.335 169.271 546.406C173.241 530.525 163.481 521.178 158.105 518.49C161.083 517.001 158.519 502.568 156.864 495.537C166.294 492.56 169.892 478.581 170.512 471.964L176.715 474.446L181.058 484.991L187.882 488.714L197.807 479.408L289.619 484.991L298.304 465.14H289.619V280.897Z" fill="#6989EC" stroke="#10CFF1"/>
</svg>
