<svg width="31" height="31" viewBox="0 0 31 31" fill="none" xmlns="http://www.w3.org/2000/svg">
<g opacity="0.68">
<rect width="31" height="31" rx="15.5" fill="#1D2F66"/>
<path fill-rule="evenodd" clip-rule="evenodd" d="M15.1312 24.153L15.791 23.4096C16.5397 22.5529 17.2134 21.7376 17.8122 20.9638L18.3068 20.3114C20.3723 17.5293 21.405 15.3219 21.405 13.6894C21.405 10.2053 18.5965 7.38104 15.1312 7.38104C11.666 7.38104 8.85742 10.2053 8.85742 13.6894C8.85742 15.3219 9.89016 17.5296 11.9556 20.3124L12.4502 20.9649C13.3051 22.06 14.1993 23.1227 15.1312 24.153Z" stroke="white" stroke-linecap="round" stroke-linejoin="round"/>
<path d="M15.1317 16.2689C16.5754 16.2689 17.7458 15.0986 17.7458 13.6549C17.7458 12.2111 16.5754 11.0408 15.1317 11.0408C13.6879 11.0408 12.5176 12.2111 12.5176 13.6549C12.5176 15.0986 13.6879 16.2689 15.1317 16.2689Z" stroke="white" stroke-linecap="round" stroke-linejoin="round"/>
</g>
</svg>
