<svg width="31" height="31" viewBox="0 0 31 31" fill="none" xmlns="http://www.w3.org/2000/svg">
<g opacity="0.66">
<rect width="31" height="31" rx="15.5" fill="#18295C"/>
<path d="M22.0263 23.25C22.3509 23.25 22.6621 23.1211 22.8916 22.8916C23.1211 22.6621 23.25 22.3509 23.25 22.0263V19.1711C23.25 18.8465 23.1211 18.5353 22.8916 18.3058C22.6621 18.0763 22.3509 17.9474 22.0263 17.9474C21.0718 17.9474 20.1337 17.8005 19.2363 17.4987C19.0218 17.431 18.7928 17.4233 18.5742 17.4765C18.3556 17.5297 18.1557 17.6418 17.9963 17.8005L16.8216 18.9753C14.7921 17.8678 13.1241 16.1998 12.0166 14.1703L13.1832 13.0037C13.5176 12.6855 13.64 12.2124 13.4932 11.7555C13.1995 10.8663 13.0526 9.92816 13.0526 8.97368C13.0526 8.64914 12.9237 8.33789 12.6942 8.10841C12.4647 7.87892 12.1535 7.75 11.8289 7.75H8.97368C8.64914 7.75 8.33789 7.87892 8.10841 8.10841C7.87892 8.33789 7.75 8.64914 7.75 8.97368C7.75 16.8461 14.1539 23.25 22.0263 23.25ZM8.97368 8.56579H11.8289C11.9371 8.56579 12.0409 8.60876 12.1174 8.68526C12.1939 8.76175 12.2368 8.8655 12.2368 8.97368C12.2368 10.0179 12.4 11.0376 12.7182 12.0084C12.7589 12.1226 12.7508 12.2858 12.6203 12.4163L11.0132 14.0153C12.3592 16.6503 14.3334 18.6245 16.9766 19.9868L18.5674 18.3797C18.6816 18.2655 18.8366 18.2329 18.9834 18.2737C19.9624 18.6 20.9821 18.7632 22.0263 18.7632C22.1345 18.7632 22.2382 18.8061 22.3147 18.8826C22.3912 18.9591 22.4342 19.0629 22.4342 19.1711V22.0263C22.4342 22.1345 22.3912 22.2382 22.3147 22.3147C22.2382 22.3912 22.1345 22.4342 22.0263 22.4342C14.6026 22.4342 8.56579 16.3974 8.56579 8.97368C8.56579 8.8655 8.60876 8.76175 8.68526 8.68526C8.76175 8.60876 8.8655 8.56579 8.97368 8.56579Z" fill="white"/>
</g>
</svg>
